<mxfile host="app.diagrams.net" agent="Mozilla/5.0 (Windows NT 10.0; Win64; x64) AppleWebKit/537.36 (KHTML, like Gecko) Chrome/134.0.0.0 Safari/537.36" version="26.2.9">
  <diagram name="第 1 页" id="aslpY7t4ISPW0DgNJfen">
    <mxGraphModel dx="1008" dy="519" grid="1" gridSize="10" guides="1" tooltips="1" connect="1" arrows="1" fold="1" page="1" pageScale="1" pageWidth="827" pageHeight="1169" math="0" shadow="0">
      <root>
        <mxCell id="0" />
        <mxCell id="1" parent="0" />
        <mxCell id="swOD4NW9fzwGlJNLQlUq-28" value="" style="rounded=0;whiteSpace=wrap;html=1;fillColor=#d5e8d4;strokeColor=#82b366;" parent="1" vertex="1">
          <mxGeometry x="390" y="510" width="280" height="320" as="geometry" />
        </mxCell>
        <mxCell id="swOD4NW9fzwGlJNLQlUq-4" style="edgeStyle=orthogonalEdgeStyle;rounded=0;orthogonalLoop=1;jettySize=auto;html=1;entryX=0;entryY=0.5;entryDx=0;entryDy=0;" parent="1" source="swOD4NW9fzwGlJNLQlUq-1" target="swOD4NW9fzwGlJNLQlUq-3" edge="1">
          <mxGeometry relative="1" as="geometry" />
        </mxCell>
        <mxCell id="swOD4NW9fzwGlJNLQlUq-1" value="&lt;font style=&quot;font-size: 14px;&quot;&gt;&lt;b&gt;Task&lt;/b&gt;&lt;/font&gt;" style="rounded=1;whiteSpace=wrap;html=1;" parent="1" vertex="1">
          <mxGeometry x="150" y="235" width="80" height="50" as="geometry" />
        </mxCell>
        <mxCell id="swOD4NW9fzwGlJNLQlUq-3" value="" style="rounded=0;whiteSpace=wrap;html=1;" parent="1" vertex="1">
          <mxGeometry x="340" y="120" width="210" height="280" as="geometry" />
        </mxCell>
        <mxCell id="swOD4NW9fzwGlJNLQlUq-5" value="&lt;b&gt;&lt;font style=&quot;font-size: 14px;&quot;&gt;按任务类型分发&lt;/font&gt;&lt;/b&gt;" style="text;html=1;align=center;verticalAlign=middle;whiteSpace=wrap;rounded=0;" parent="1" vertex="1">
          <mxGeometry x="250" y="220" width="70" height="30" as="geometry" />
        </mxCell>
        <mxCell id="swOD4NW9fzwGlJNLQlUq-15" style="edgeStyle=orthogonalEdgeStyle;rounded=0;orthogonalLoop=1;jettySize=auto;html=1;entryX=0;entryY=0.5;entryDx=0;entryDy=0;" parent="1" source="swOD4NW9fzwGlJNLQlUq-6" target="swOD4NW9fzwGlJNLQlUq-10" edge="1">
          <mxGeometry relative="1" as="geometry" />
        </mxCell>
        <mxCell id="swOD4NW9fzwGlJNLQlUq-6" value="&lt;b&gt;&lt;font style=&quot;font-size: 14px;&quot;&gt;Queue 1&lt;/font&gt;&lt;/b&gt;" style="rounded=1;whiteSpace=wrap;html=1;" parent="1" vertex="1">
          <mxGeometry x="360" y="140" width="170" height="40" as="geometry" />
        </mxCell>
        <mxCell id="swOD4NW9fzwGlJNLQlUq-16" style="edgeStyle=orthogonalEdgeStyle;rounded=0;orthogonalLoop=1;jettySize=auto;html=1;" parent="1" source="swOD4NW9fzwGlJNLQlUq-7" target="swOD4NW9fzwGlJNLQlUq-11" edge="1">
          <mxGeometry relative="1" as="geometry" />
        </mxCell>
        <mxCell id="swOD4NW9fzwGlJNLQlUq-7" value="&lt;b&gt;&lt;font style=&quot;font-size: 14px;&quot;&gt;Queue 2&lt;/font&gt;&lt;/b&gt;" style="rounded=1;whiteSpace=wrap;html=1;" parent="1" vertex="1">
          <mxGeometry x="360" y="200" width="170" height="40" as="geometry" />
        </mxCell>
        <mxCell id="swOD4NW9fzwGlJNLQlUq-17" style="edgeStyle=orthogonalEdgeStyle;rounded=0;orthogonalLoop=1;jettySize=auto;html=1;entryX=0;entryY=0.5;entryDx=0;entryDy=0;" parent="1" source="swOD4NW9fzwGlJNLQlUq-8" target="swOD4NW9fzwGlJNLQlUq-12" edge="1">
          <mxGeometry relative="1" as="geometry" />
        </mxCell>
        <mxCell id="swOD4NW9fzwGlJNLQlUq-8" value="&lt;b&gt;&lt;font style=&quot;font-size: 14px;&quot;&gt;Queue 3&lt;/font&gt;&lt;/b&gt;" style="rounded=1;whiteSpace=wrap;html=1;" parent="1" vertex="1">
          <mxGeometry x="360" y="270" width="170" height="40" as="geometry" />
        </mxCell>
        <mxCell id="swOD4NW9fzwGlJNLQlUq-18" style="edgeStyle=orthogonalEdgeStyle;rounded=0;orthogonalLoop=1;jettySize=auto;html=1;entryX=0;entryY=0.5;entryDx=0;entryDy=0;" parent="1" source="swOD4NW9fzwGlJNLQlUq-9" target="swOD4NW9fzwGlJNLQlUq-13" edge="1">
          <mxGeometry relative="1" as="geometry" />
        </mxCell>
        <mxCell id="swOD4NW9fzwGlJNLQlUq-9" value="&lt;b&gt;&lt;font style=&quot;font-size: 14px;&quot;&gt;Queue n&lt;/font&gt;&lt;/b&gt;" style="rounded=1;whiteSpace=wrap;html=1;" parent="1" vertex="1">
          <mxGeometry x="360" y="340" width="170" height="40" as="geometry" />
        </mxCell>
        <mxCell id="swOD4NW9fzwGlJNLQlUq-10" value="&lt;b&gt;&lt;font style=&quot;font-size: 14px;&quot;&gt;ComfyUI 1&lt;/font&gt;&lt;/b&gt;" style="rounded=0;whiteSpace=wrap;html=1;" parent="1" vertex="1">
          <mxGeometry x="630" y="110" width="120" height="60" as="geometry" />
        </mxCell>
        <mxCell id="swOD4NW9fzwGlJNLQlUq-11" value="&lt;b&gt;&lt;font style=&quot;font-size: 14px;&quot;&gt;ComfyUI 2&lt;/font&gt;&lt;/b&gt;" style="rounded=0;whiteSpace=wrap;html=1;" parent="1" vertex="1">
          <mxGeometry x="630" y="190" width="120" height="60" as="geometry" />
        </mxCell>
        <mxCell id="swOD4NW9fzwGlJNLQlUq-12" value="&lt;b&gt;&lt;font style=&quot;font-size: 14px;&quot;&gt;ComfyUI 3&lt;/font&gt;&lt;/b&gt;" style="rounded=0;whiteSpace=wrap;html=1;" parent="1" vertex="1">
          <mxGeometry x="630" y="260" width="120" height="60" as="geometry" />
        </mxCell>
        <mxCell id="swOD4NW9fzwGlJNLQlUq-13" value="&lt;b&gt;&lt;font style=&quot;font-size: 14px;&quot;&gt;ComfyUI 4&lt;/font&gt;&lt;/b&gt;" style="rounded=0;whiteSpace=wrap;html=1;" parent="1" vertex="1">
          <mxGeometry x="630" y="360" width="120" height="60" as="geometry" />
        </mxCell>
        <mxCell id="swOD4NW9fzwGlJNLQlUq-24" style="edgeStyle=orthogonalEdgeStyle;rounded=0;orthogonalLoop=1;jettySize=auto;html=1;" parent="1" source="swOD4NW9fzwGlJNLQlUq-19" target="swOD4NW9fzwGlJNLQlUq-22" edge="1">
          <mxGeometry relative="1" as="geometry" />
        </mxCell>
        <mxCell id="swOD4NW9fzwGlJNLQlUq-19" value="&lt;font style=&quot;font-size: 18px;&quot;&gt;&lt;b&gt;AIGC 1&lt;/b&gt;&lt;/font&gt;" style="rounded=1;whiteSpace=wrap;html=1;" parent="1" vertex="1">
          <mxGeometry x="230" y="585" width="120" height="150" as="geometry" />
        </mxCell>
        <mxCell id="swOD4NW9fzwGlJNLQlUq-25" style="edgeStyle=orthogonalEdgeStyle;rounded=0;orthogonalLoop=1;jettySize=auto;html=1;entryX=1;entryY=0.5;entryDx=0;entryDy=0;" parent="1" source="swOD4NW9fzwGlJNLQlUq-20" target="swOD4NW9fzwGlJNLQlUq-19" edge="1">
          <mxGeometry relative="1" as="geometry" />
        </mxCell>
        <mxCell id="swOD4NW9fzwGlJNLQlUq-20" value="&lt;b&gt;&lt;font style=&quot;font-size: 14px;&quot;&gt;主队列&lt;/font&gt;&lt;/b&gt;" style="rounded=1;whiteSpace=wrap;html=1;" parent="1" vertex="1">
          <mxGeometry x="470" y="580" width="170" height="40" as="geometry" />
        </mxCell>
        <mxCell id="swOD4NW9fzwGlJNLQlUq-26" style="edgeStyle=orthogonalEdgeStyle;rounded=0;orthogonalLoop=1;jettySize=auto;html=1;entryX=1;entryY=0.5;entryDx=0;entryDy=0;" parent="1" source="swOD4NW9fzwGlJNLQlUq-21" target="swOD4NW9fzwGlJNLQlUq-19" edge="1">
          <mxGeometry relative="1" as="geometry" />
        </mxCell>
        <mxCell id="swOD4NW9fzwGlJNLQlUq-21" value="&lt;b&gt;&lt;font style=&quot;font-size: 14px;&quot;&gt;次要队列 1&lt;/font&gt;&lt;/b&gt;" style="rounded=1;whiteSpace=wrap;html=1;" parent="1" vertex="1">
          <mxGeometry x="470" y="640" width="170" height="40" as="geometry" />
        </mxCell>
        <mxCell id="swOD4NW9fzwGlJNLQlUq-22" value="&lt;font style=&quot;font-size: 18px;&quot;&gt;&lt;b&gt;ComfyUI 1&lt;/b&gt;&lt;/font&gt;" style="rounded=1;whiteSpace=wrap;html=1;" parent="1" vertex="1">
          <mxGeometry x="50" y="585" width="120" height="150" as="geometry" />
        </mxCell>
        <mxCell id="swOD4NW9fzwGlJNLQlUq-27" style="edgeStyle=orthogonalEdgeStyle;rounded=0;orthogonalLoop=1;jettySize=auto;html=1;entryX=1;entryY=0.5;entryDx=0;entryDy=0;" parent="1" source="swOD4NW9fzwGlJNLQlUq-23" target="swOD4NW9fzwGlJNLQlUq-19" edge="1">
          <mxGeometry relative="1" as="geometry" />
        </mxCell>
        <mxCell id="swOD4NW9fzwGlJNLQlUq-23" value="&lt;b&gt;&lt;font style=&quot;font-size: 14px;&quot;&gt;次要队列 2&lt;/font&gt;&lt;/b&gt;" style="rounded=1;whiteSpace=wrap;html=1;" parent="1" vertex="1">
          <mxGeometry x="470" y="700" width="170" height="40" as="geometry" />
        </mxCell>
        <mxCell id="swOD4NW9fzwGlJNLQlUq-29" value="&lt;font style=&quot;font-size: 18px;&quot;&gt;配置在Redis&amp;nbsp;&lt;/font&gt;" style="text;html=1;align=center;verticalAlign=middle;whiteSpace=wrap;rounded=0;" parent="1" vertex="1">
          <mxGeometry x="414" y="520" width="116" height="30" as="geometry" />
        </mxCell>
        <mxCell id="swOD4NW9fzwGlJNLQlUq-31" style="edgeStyle=orthogonalEdgeStyle;rounded=0;orthogonalLoop=1;jettySize=auto;html=1;entryX=1;entryY=0.5;entryDx=0;entryDy=0;" parent="1" source="swOD4NW9fzwGlJNLQlUq-30" target="swOD4NW9fzwGlJNLQlUq-19" edge="1">
          <mxGeometry relative="1" as="geometry" />
        </mxCell>
        <mxCell id="swOD4NW9fzwGlJNLQlUq-30" value="&lt;b&gt;&lt;font style=&quot;font-size: 14px;&quot;&gt;次要队列 n&lt;/font&gt;&lt;/b&gt;" style="rounded=1;whiteSpace=wrap;html=1;" parent="1" vertex="1">
          <mxGeometry x="470" y="750" width="170" height="40" as="geometry" />
        </mxCell>
        <mxCell id="aJre4djwhM1ro7wTKasv-5" value="" style="edgeStyle=orthogonalEdgeStyle;rounded=0;orthogonalLoop=1;jettySize=auto;html=1;" edge="1" parent="1" source="aJre4djwhM1ro7wTKasv-1" target="aJre4djwhM1ro7wTKasv-4">
          <mxGeometry relative="1" as="geometry" />
        </mxCell>
        <mxCell id="aJre4djwhM1ro7wTKasv-1" value="&lt;font style=&quot;font-size: 18px;&quot;&gt;横幅开始&lt;/font&gt;" style="strokeWidth=2;html=1;shape=mxgraph.flowchart.start_1;whiteSpace=wrap;" vertex="1" parent="1">
          <mxGeometry x="190" y="880" width="100" height="60" as="geometry" />
        </mxCell>
        <mxCell id="aJre4djwhM1ro7wTKasv-11" value="" style="edgeStyle=orthogonalEdgeStyle;rounded=0;orthogonalLoop=1;jettySize=auto;html=1;" edge="1" parent="1" source="aJre4djwhM1ro7wTKasv-4" target="aJre4djwhM1ro7wTKasv-10">
          <mxGeometry relative="1" as="geometry" />
        </mxCell>
        <mxCell id="aJre4djwhM1ro7wTKasv-24" value="&lt;font style=&quot;font-size: 14px;&quot;&gt;横幅&lt;/font&gt;" style="edgeLabel;html=1;align=center;verticalAlign=middle;resizable=0;points=[];" vertex="1" connectable="0" parent="aJre4djwhM1ro7wTKasv-11">
          <mxGeometry x="0.006" y="-2" relative="1" as="geometry">
            <mxPoint as="offset" />
          </mxGeometry>
        </mxCell>
        <mxCell id="aJre4djwhM1ro7wTKasv-4" value="&lt;font style=&quot;font-size: 14px;&quot;&gt;调用豆包识别&lt;/font&gt;" style="rhombus;whiteSpace=wrap;html=1;strokeWidth=2;" vertex="1" parent="1">
          <mxGeometry x="195" y="970" width="90" height="80" as="geometry" />
        </mxCell>
        <mxCell id="aJre4djwhM1ro7wTKasv-6" value="&lt;font style=&quot;font-size: 18px;&quot;&gt;结束&lt;/font&gt;" style="strokeWidth=2;html=1;shape=mxgraph.flowchart.terminator;whiteSpace=wrap;" vertex="1" parent="1">
          <mxGeometry x="120" y="1510" width="100" height="60" as="geometry" />
        </mxCell>
        <mxCell id="aJre4djwhM1ro7wTKasv-8" style="edgeStyle=orthogonalEdgeStyle;rounded=0;orthogonalLoop=1;jettySize=auto;html=1;entryX=0.5;entryY=0;entryDx=0;entryDy=0;entryPerimeter=0;exitX=0;exitY=0.5;exitDx=0;exitDy=0;" edge="1" parent="1" source="aJre4djwhM1ro7wTKasv-4" target="aJre4djwhM1ro7wTKasv-6">
          <mxGeometry relative="1" as="geometry">
            <mxPoint x="170" y="1010" as="sourcePoint" />
            <mxPoint x="115" y="1330" as="targetPoint" />
            <Array as="points">
              <mxPoint x="115" y="1010" />
              <mxPoint x="115" y="1330" />
              <mxPoint x="170" y="1330" />
            </Array>
          </mxGeometry>
        </mxCell>
        <mxCell id="aJre4djwhM1ro7wTKasv-9" value="&lt;font style=&quot;font-size: 14px;&quot;&gt;非横幅&lt;/font&gt;" style="edgeLabel;html=1;align=center;verticalAlign=middle;resizable=0;points=[];" vertex="1" connectable="0" parent="aJre4djwhM1ro7wTKasv-8">
          <mxGeometry x="0.0291" relative="1" as="geometry">
            <mxPoint as="offset" />
          </mxGeometry>
        </mxCell>
        <mxCell id="aJre4djwhM1ro7wTKasv-13" value="" style="edgeStyle=orthogonalEdgeStyle;rounded=0;orthogonalLoop=1;jettySize=auto;html=1;" edge="1" parent="1" source="aJre4djwhM1ro7wTKasv-10" target="aJre4djwhM1ro7wTKasv-12">
          <mxGeometry relative="1" as="geometry" />
        </mxCell>
        <mxCell id="aJre4djwhM1ro7wTKasv-10" value="&lt;font style=&quot;font-size: 18px;&quot;&gt;webui 抠图&lt;/font&gt;" style="whiteSpace=wrap;html=1;strokeWidth=2;" vertex="1" parent="1">
          <mxGeometry x="366" y="980" width="120" height="60" as="geometry" />
        </mxCell>
        <mxCell id="aJre4djwhM1ro7wTKasv-17" style="edgeStyle=orthogonalEdgeStyle;rounded=0;orthogonalLoop=1;jettySize=auto;html=1;" edge="1" parent="1" source="aJre4djwhM1ro7wTKasv-12" target="aJre4djwhM1ro7wTKasv-16">
          <mxGeometry relative="1" as="geometry" />
        </mxCell>
        <mxCell id="aJre4djwhM1ro7wTKasv-12" value="&lt;font style=&quot;font-size: 18px;&quot;&gt;图片入库&lt;/font&gt;" style="whiteSpace=wrap;html=1;strokeWidth=2;" vertex="1" parent="1">
          <mxGeometry x="366" y="1120" width="120" height="60" as="geometry" />
        </mxCell>
        <mxCell id="aJre4djwhM1ro7wTKasv-22" value="" style="edgeStyle=orthogonalEdgeStyle;rounded=0;orthogonalLoop=1;jettySize=auto;html=1;" edge="1" parent="1" source="aJre4djwhM1ro7wTKasv-16" target="aJre4djwhM1ro7wTKasv-21">
          <mxGeometry relative="1" as="geometry" />
        </mxCell>
        <mxCell id="aJre4djwhM1ro7wTKasv-23" value="&lt;font style=&quot;font-size: 14px;&quot;&gt;横幅&lt;/font&gt;" style="edgeLabel;html=1;align=center;verticalAlign=middle;resizable=0;points=[];" vertex="1" connectable="0" parent="aJre4djwhM1ro7wTKasv-22">
          <mxGeometry x="-0.3335" relative="1" as="geometry">
            <mxPoint y="3" as="offset" />
          </mxGeometry>
        </mxCell>
        <mxCell id="aJre4djwhM1ro7wTKasv-16" value="&lt;font style=&quot;font-size: 14px;&quot;&gt;ComfyUI 识别&lt;/font&gt;" style="rhombus;whiteSpace=wrap;html=1;strokeWidth=2;" vertex="1" parent="1">
          <mxGeometry x="381" y="1290" width="90" height="80" as="geometry" />
        </mxCell>
        <mxCell id="aJre4djwhM1ro7wTKasv-19" style="edgeStyle=orthogonalEdgeStyle;rounded=0;orthogonalLoop=1;jettySize=auto;html=1;entryX=1;entryY=0.5;entryDx=0;entryDy=0;entryPerimeter=0;" edge="1" parent="1" source="aJre4djwhM1ro7wTKasv-16" target="aJre4djwhM1ro7wTKasv-6">
          <mxGeometry relative="1" as="geometry" />
        </mxCell>
        <mxCell id="aJre4djwhM1ro7wTKasv-20" value="&lt;font style=&quot;font-size: 14px;&quot;&gt;非横幅&lt;/font&gt;" style="edgeLabel;html=1;align=center;verticalAlign=middle;resizable=0;points=[];" vertex="1" connectable="0" parent="aJre4djwhM1ro7wTKasv-19">
          <mxGeometry x="-0.0511" relative="1" as="geometry">
            <mxPoint as="offset" />
          </mxGeometry>
        </mxCell>
        <mxCell id="aJre4djwhM1ro7wTKasv-26" value="" style="edgeStyle=orthogonalEdgeStyle;rounded=0;orthogonalLoop=1;jettySize=auto;html=1;" edge="1" parent="1" source="aJre4djwhM1ro7wTKasv-21" target="aJre4djwhM1ro7wTKasv-25">
          <mxGeometry relative="1" as="geometry" />
        </mxCell>
        <mxCell id="aJre4djwhM1ro7wTKasv-21" value="&lt;font style=&quot;font-size: 18px;&quot;&gt;ComfyUI 裁剪放大增强&lt;/font&gt;" style="whiteSpace=wrap;html=1;strokeWidth=2;" vertex="1" parent="1">
          <mxGeometry x="366" y="1420" width="120" height="60" as="geometry" />
        </mxCell>
        <mxCell id="aJre4djwhM1ro7wTKasv-25" value="&lt;font style=&quot;font-size: 18px;&quot;&gt;图片入库&lt;/font&gt;" style="whiteSpace=wrap;html=1;strokeWidth=2;" vertex="1" parent="1">
          <mxGeometry x="366" y="1515" width="120" height="50" as="geometry" />
        </mxCell>
        <mxCell id="aJre4djwhM1ro7wTKasv-27" style="edgeStyle=orthogonalEdgeStyle;rounded=0;orthogonalLoop=1;jettySize=auto;html=1;entryX=1;entryY=0.5;entryDx=0;entryDy=0;entryPerimeter=0;" edge="1" parent="1" source="aJre4djwhM1ro7wTKasv-25" target="aJre4djwhM1ro7wTKasv-6">
          <mxGeometry relative="1" as="geometry" />
        </mxCell>
      </root>
    </mxGraphModel>
  </diagram>
</mxfile>
